<svg xmlns="http://www.w3.org/2000/svg" id="Calque_2" data-name="Calque 2" viewBox="0 0 488.49 509.84"><defs><style>      .cls-1 {        fill-rule: evenodd;      }      .cls-1, .cls-2 {        fill: #243243;      }      .cls-3 {        fill: #eff7f9;      }    </style></defs><g id="Calque_1-2" data-name="Calque 1"><path class="cls-2" d="M250.56,1.49c-3.98-1.99-8.65-1.99-12.62,0C158.17,41.33,106.14,60.04,11.99,77.34c-8,1.47-13.32,9.45-11.7,17.68,2.06,10.39,4.05,20.48,5.98,30.28,20.94,106.1,35.18,178.29,54.88,234.6.74,2.13,1.97,4.04,3.55,5.61,4.73,4.65,9.35,9.21,13.87,13.67,58.19,57.44,99.91,98.6,159.54,129.18,3.86,1.98,8.4,1.98,12.25,0,59.64-30.58,101.35-71.74,159.55-129.18,4.52-4.46,9.13-9.02,13.87-13.67,1.59-1.57,2.81-3.48,3.55-5.61,19.7-56.31,33.94-128.5,54.88-234.6,1.93-9.8,3.92-19.89,5.98-30.28,1.62-8.23-3.7-16.21-11.7-17.68C382.35,60.04,330.32,41.33,250.56,1.49Z"></path><path class="cls-3" d="M247.41,29.89c-1.99-1-4.36-1-6.35,0-73.34,36.86-119.8,53.54-207.43,69.29-4,.72-6.66,4.71-5.84,8.82,2.22,11.24,4.36,22.1,6.42,32.57,18.64,94.62,31.26,158.72,48.87,208.7.37,1.07.98,2.02,1.78,2.8,4.5,4.43,8.88,8.77,13.16,13,52.12,51.54,89.26,88.26,143.14,115.42,1.94.98,4.22.98,6.16,0,53.88-27.16,91.03-63.88,143.14-115.42,4.28-4.23,8.66-8.57,13.16-13,.79-.78,1.4-1.73,1.78-2.8,17.6-49.98,30.23-114.08,48.87-208.7,2.06-10.48,4.2-21.33,6.42-32.57.81-4.11-1.84-8.1-5.84-8.82-87.63-15.76-134.09-32.44-207.44-69.29Z"></path><path class="cls-1" d="M245.74,453.72c-1.54.86-3.43.82-4.93-.11-47.59-29.22-74.07-50.39-112.74-88.89-3.23-3.21-1.02-8.83,3.45-8.83h223.92c4.41,0,6.65,5.47,3.55,8.73-38.32,40.27-64.57,61.89-113.25,89.1ZM248.94,375.75c1.35-.72,2.59-1.66,4.02-3.07,1.18-.88,1.88-1.22,2.44-1.29.44-.05.94.07,1.73.67l10.98,20.46c-1.56,4.67-5.02,8.39-9.03,10.33-3.78,1.83-7.96,2.04-11.51.08,1.25-1.54,2.46-2.64,3.58-3.26,1.28-.71,2.31-.74,3.18-.21.49.3,1.12.13,1.4-.35.3-.49.14-1.11-.35-1.4-1.69-1.01-3.53-.78-5.24.17-1.68.94-3.33,2.61-4.91,4.71-2.07,2.77-3.43,5.26-4.51,7.93l-15.86-28.26c3.38-4.2,7.34-6.93,10.76-7.9,1.78-.5,3.35-.53,4.61-.1,1.23.42,2.25,1.27,2.93,2.7,0,.02.02.05.03.06l6.66,11.81c.28.49.91.67,1.4.38.49-.27.67-.9.39-1.4l-6.04-10.7c1.23-.4,2.3-.81,3.33-1.37ZM239.22,421.98l-19.83-37.15c-.28-.9.13-1.73.96-2.32.42-.31.9-.5,1.33-.58.29-.05.5-.03.65,0l20.83,37.12c.04.11.05.35-.18.78-.24.44-.68.93-1.24,1.35s-1.15.71-1.67.82c-.4.09-.67.06-.85-.02Z"></path><path class="cls-2" d="M149.82,115.6c.51,0,1.17.23,1.97.68.81.46,1.21,1.55,1.21,3.3v85.83c0,1.74-.4,2.84-1.21,3.3-.8.46-1.47.68-1.97.68h-10.12c-.44,0-1.06-.23-1.87-.68-.73-.46-1.09-1.55-1.09-3.3v-35.01h-41.68v35.01c0,1.74-.4,2.84-1.21,3.3-.73.46-1.35.68-1.87.68h-10c-.52,0-1.18-.23-1.98-.68s-1.21-1.55-1.21-3.3v-85.83c0-1.74.4-2.84,1.21-3.3s1.47-.68,1.98-.68h10c.52,0,1.14.23,1.87.68.81.46,1.21,1.55,1.21,3.3v33.99h41.68v-33.99c0-1.74.36-2.84,1.09-3.3.81-.46,1.43-.68,1.87-.68h10.12Z"></path><path class="cls-2" d="M254.92,204.95c.44,1.07.55,1.97.33,2.73-.15.31-.36.68-.66,1.14-.3.38-.88.56-1.76.56h-11.77c-1.54,0-2.6-.83-3.19-2.5l-27.27-70.37-.11-.23h-.44l-.11.11c0,.08-.04.12-.11.12v.11l-14.07,36.83h13.64c1.53,0,2.6.76,3.19,2.28l3.95,10.11c.37,1.29.22,2.39-.44,3.3-.58,1.06-1.54,1.59-2.85,1.59h-24.09l-6.27,16.26c-.58,1.59-1.62,2.39-3.08,2.39h-12.09c-.88,0-1.5-.19-1.87-.56-.29-.38-.48-.76-.55-1.14-.22-.68-.14-1.59.22-2.73l30.68-78.78c1.47-4.01,3.08-6.78,4.84-8.29.22-.16.44-.35.66-.57.3-.23.62-.42.99-.56,2.2-1.59,4.73-2.39,7.58-2.39,3.08,0,5.79.94,8.14,2.84,2.42,1.89,4.08,4.32,4.95,7.27.15.23.26.49.33.79.08.31.18.61.33.91l30.9,78.78Z"></path><path class="cls-2" d="M331.3,114.44c.44,0,1.06.23,1.87.68s1.21,1.55,1.21,3.3v8.76c0,1.81-.4,2.95-1.21,3.41s-1.43.68-1.87.68h-39.48c-2.5,0-4.4.27-5.72.8-1.32.46-2.41,1.29-3.29,2.5-.81,1.14-1.43,2.81-1.87,5.01-.14,1.06-.29,2.31-.44,3.75-.07,1.37-.11,2.92-.11,4.66v26.49c0,1.74.04,3.33.11,4.77.15,1.37.3,2.61.44,3.75.44,2.35,1.06,4.02,1.87,5.01.88,1.21,1.97,2.04,3.29,2.5,1.32.53,3.23.8,5.72.8h39.48c.44,0,1.06.23,1.87.68s1.21,1.55,1.21,3.3v8.98c0,1.74-.4,2.84-1.21,3.3s-1.43.68-1.87.68h-40.03c-4.77,0-8.9-.64-12.43-1.93-3.37-1.21-6.19-3.3-8.46-6.25-2.28-3.03-3.89-6.74-4.84-11.14-.96-4.39-1.43-9.85-1.43-16.37v-22.5c0-3.19.11-6.1.33-8.76.22-2.73.58-5.19,1.1-7.38.96-4.55,2.57-8.26,4.84-11.14,2.13-2.88,4.94-5.01,8.46-6.37,3.52-1.29,7.66-1.93,12.43-1.93h40.03Z"></path><path class="cls-2" d="M421.62,204.39c.44.53.58,1.4.44,2.61-.15,1.59-.99,2.39-2.53,2.39h-11.88c-1.1,0-1.87-.23-2.31-.68-.44-.38-.85-.9-1.21-1.59l-17.15-31.15c-1.24-2.28-2.46-3.75-3.63-4.43-1.24-.76-3.23-1.14-5.94-1.14h-11.11v35.01c0,1.74-.4,2.84-1.21,3.3s-1.43.68-1.87.68h-10.12c-.44,0-1.1-.23-1.98-.68-.8-.46-1.21-1.55-1.21-3.3v-85.83c0-1.82.4-2.92,1.21-3.3.88-.46,1.54-.68,1.98-.68h10.12c.44,0,1.06.23,1.87.68.8.38,1.21,1.48,1.21,3.3v33.99h12.1c.58-.08,1.1-.15,1.54-.23.88-.08,1.65-.31,2.31-.68s1.24-.91,1.76-1.59c.3-.38.58-.79.88-1.25.29-.46.62-.99.99-1.59l16.61-30.35c.29-.6.7-1.14,1.21-1.59.44-.46,1.24-.68,2.42-.68h10.89c1.32,0,2.16.64,2.54,1.93.07,1.07-.04,1.97-.33,2.73l-18.15,32.97c-1.09,1.97-2.09,3.67-2.97,5.11-.36.61-.73,1.14-1.1,1.59-.29.46-.62.91-.99,1.37,2.13,2.05,4.33,5.04,6.6,8.98l19.03,34.1Z"></path><path class="cls-2" d="M190.81,240.66c.51,0,1.13.23,1.87.67.8.38,1.21,1.44,1.21,3.19v54.23c0,3.18-.11,6.14-.33,8.87s-.58,5.19-1.1,7.39c-1.02,4.69-2.6,8.41-4.73,11.13-2.13,2.88-4.99,5.01-8.58,6.37-3.3,1.21-7.44,1.81-12.43,1.81h-24.75c-4.99,0-9.12-.6-12.43-1.81-1.69-.68-3.26-1.52-4.73-2.5-1.47-1.06-2.71-2.35-3.73-3.87-2.28-2.88-3.89-6.59-4.84-11.13-.52-2.2-.88-4.66-1.1-7.39s-.33-5.69-.33-8.87v-54.23c0-1.74.4-2.8,1.21-3.19.8-.45,1.47-.67,1.98-.67h10c.52,0,1.14.23,1.87.67.81.38,1.21,1.44,1.21,3.19v56.05c0,1.74.04,3.33.11,4.77.15,1.44.3,2.69.44,3.75.44,2.05,1.06,3.75,1.87,5.12.87,1.14,1.97,1.97,3.29,2.5.74.23,1.58.42,2.53.56.96.16,2.02.23,3.2.23h23.75c1.17,0,2.23-.07,3.19-.23.96-.15,1.8-.34,2.53-.56,1.32-.53,2.42-1.37,3.3-2.5.36-.6.7-1.33.99-2.16.37-.91.62-1.9.77-2.96.14-1.06.26-2.31.33-3.75.14-1.44.22-3.03.22-4.77v-56.05c0-1.74.36-2.8,1.1-3.19.8-.45,1.47-.67,1.98-.67h10.12Z"></path><path class="cls-2" d="M282.86,239.49c.52,0,1.18.23,1.98.67.8.38,1.21,1.44,1.21,3.19v8.87c0,.91-.15,1.67-.44,2.28-.22.53-.52.95-.88,1.25-.3.23-.63.38-.99.46-.36.08-.66.12-.88.12h-28.26v72.98c0,1.74-.4,2.84-1.21,3.3-.74.38-1.36.56-1.87.56h-10.12c-.44,0-1.06-.19-1.87-.56-.8-.46-1.21-1.55-1.21-3.3v-72.98h-28.27c-.21,0-.51-.04-.87-.12-.37-.07-.74-.23-1.1-.46-.3-.3-.59-.71-.88-1.25-.22-.6-.33-1.37-.33-2.28v-8.87c0-1.74.4-2.8,1.21-3.19.8-.45,1.47-.67,1.97-.67h72.8Z"></path><path class="cls-2" d="M378.5,239.49c.52,0,1.18.23,1.98.67.8.38,1.21,1.44,1.21,3.19v8.87c0,.91-.14,1.67-.44,2.28-.22.53-.51.95-.88,1.25-.29.23-.62.38-.99.46-.36.08-.66.12-.88.12h-28.26v72.98c0,1.74-.4,2.84-1.21,3.3-.73.38-1.35.56-1.87.56h-10.12c-.44,0-1.06-.19-1.87-.56-.8-.46-1.21-1.55-1.21-3.3v-72.98h-28.27c-.22,0-.51-.04-.88-.12-.36-.07-.73-.23-1.1-.46-.29-.3-.58-.71-.87-1.25-.22-.6-.33-1.37-.33-2.28v-8.87c0-1.74.4-2.8,1.21-3.19.81-.45,1.47-.67,1.98-.67h72.8Z"></path></g></svg>